<svg width="62" height="8" viewBox="0 0 62 8" fill="none" xmlns="http://www.w3.org/2000/svg">
<path d="M25.4657 5C25.1093 5 24.9309 5.43086 25.1828 5.68284L25.7879 6.28787C25.905 6.40503 25.905 6.59498 25.7879 6.71213L24.7121 7.78787C24.595 7.90503 24.405 7.90502 24.2879 7.78787L20.6828 4.18284C20.4309 3.93086 20 4.10932 20 4.46569V7.7C20 7.86569 19.8657 8 19.7 8H18.3C18.1343 8 18 7.86569 18 7.7V3.53431C18 3.23922 18.2392 3 18.5343 3C18.8907 3 19.0691 2.56914 18.8172 2.31716L18.2121 1.71213C18.095 1.59497 18.095 1.40502 18.2121 1.28787L19.2879 0.212132C19.405 0.0949746 19.595 0.0949745 19.7121 0.212132L23.3172 3.81716C23.5691 4.06914 24 3.89068 24 3.53431V0.3C24 0.134314 24.1343 -7.24234e-09 24.3 0L25.7 6.11959e-08C25.8657 6.84383e-08 26 0.134315 26 0.3V4.46569C26 4.76078 25.7608 5 25.4657 5Z" fill="#1A1A1A"></path>
<path d="M59 0C60.6569 0 62 1.34315 62 3C62 4.65685 60.6569 6 59 6H56.2998C56.1343 6.00011 56.0001 6.13427 56 6.2998V7.7C56 7.86569 55.8657 8 55.7 8H54.3C54.1343 8 54 7.86569 54 7.7V6.41406C54 6.1489 54.1055 5.89453 54.293 5.70703L55.707 4.29297C55.8945 4.10547 56.1489 4.00004 56.4141 4H59C59.5523 4 60 3.55228 60 3C60 2.44772 59.5523 2 59 2H56.3668C56.2695 2 56.1762 2.03864 56.1074 2.10742C56.0386 2.1762 56 2.26949 56 2.36676V3.78888C56 3.90548 55.9055 4 55.7889 4H54.25C54.1119 4 54 3.88807 54 3.75V2.21112C54 2.09452 54.0945 2 54.2111 2H55.6332C55.7305 2 55.8238 1.96136 55.8926 1.89258C55.9614 1.8238 56 1.73051 56 1.63324V0.211115C56 0.0945195 56.0945 0 56.2111 0H59Z" fill="#1A1A1A"></path>
<path d="M42 5.3C42 5.13431 41.8657 5 41.7 5H38.3C38.1343 5 38 5.13431 38 5.3V7.5C38 7.77614 37.7761 8 37.5 8H36.3C36.1343 8 36 7.86569 36 7.7V0.3C36 0.134315 36.1343 0 36.3 0H37.5C37.7761 0 38 0.223858 38 0.5V2.7C38 2.86569 38.1343 3 38.3 3H40.7929C40.9255 3 41.0527 3.05268 41.1464 3.14645L41.6586 3.65858C41.7846 3.78457 42 3.69534 42 3.51716V0.5C42 0.223858 42.2239 0 42.5 0H43.7C43.8657 0 44 0.134315 44 0.3V7.7C44 7.86569 43.8657 8 43.7 8H42.5C42.2239 8 42 7.77614 42 7.5V5.3Z" fill="#1A1A1A"></path>
<path d="M42 5.3C42 5.13431 41.8657 5 41.7 5H38.3C38.1343 5 38 5.13431 38 5.3V7.5C38 7.77614 37.7761 8 37.5 8H36.3C36.1343 8 36 7.86569 36 7.7V0.3C36 0.134315 36.1343 0 36.3 0H37.5C37.7761 0 38 0.223858 38 0.5V2.7C38 2.86569 38.1343 3 38.3 3H40.7929C40.9255 3 41.0527 3.05268 41.1464 3.14645L41.6586 3.65858C41.7846 3.78457 42 3.69534 42 3.51716V0.5C42 0.223858 42.2239 0 42.5 0H43.7C43.8657 0 44 0.134315 44 0.3V7.7C44 7.86569 43.8657 8 43.7 8H42.5C42.2239 8 42 7.77614 42 7.5V5.3Z" fill="#1A1A1A"></path>
<path d="M35 1.7C35 1.86569 34.8657 2 34.7 2H29.3601C29.2646 2 29.173 2.03794 29.1055 2.10547C29.0379 2.173 29 2.26459 29 2.36009V2.8C29 2.91046 29.0895 3 29.2 3H33C34.1046 3 35 3.89543 35 5V5.5C35 5.77614 34.7761 6 34.5 6H33.3601C33.2646 6 33.173 6.03794 33.1055 6.10547C33.0379 6.173 33 6.26459 33 6.36009V7.5C33 7.77614 32.7761 8 32.5 8H27.3C27.1343 8 27 7.86569 27 7.7V6.3C27 6.13431 27.1343 6 27.3 6H32.6399C32.7354 6 32.827 5.96206 32.8945 5.89453C32.9621 5.827 33 5.73541 33 5.63991V5.2C33 5.08954 32.9105 5 32.8 5H29C27.8954 5 27 4.10457 27 3V2.5C27 2.22386 27.2239 2 27.5 2H28.6399C28.7354 2 28.827 1.96206 28.8945 1.89453C28.9621 1.827 29 1.73541 29 1.63991V0.5C29 0.223857 29.2239 0 29.5 0H34.7C34.8657 0 35 0.134315 35 0.3V1.7Z" fill="#1A1A1A"></path>
<path d="M52.7002 0C52.8657 0.000105566 52.9999 0.134274 53 0.299805V1.5C53 1.77614 52.7761 2 52.5 2H50.3C50.1343 2 50 2.13431 50 2.3V5.7C50 5.86569 50.1343 6 50.3 6H52.5C52.7761 6 53 6.22386 53 6.5V7.7002C52.9999 7.86573 52.8657 7.99989 52.7002 8H45.2998C45.1343 7.99989 45.0001 7.86573 45 7.7002V6.5C45 6.22386 45.2239 6 45.5 6H47.7C47.8657 6 48 5.86569 48 5.7V3.20711C48 3.0745 48.0527 2.94732 48.1464 2.85355L48.6586 2.34142C48.7846 2.21543 48.6953 2 48.5172 2H45.5C45.2239 2 45 1.77614 45 1.5V0.299805C45.0001 0.134274 45.1343 0.00010547 45.2998 0H52.7002Z" fill="#1A1A1A"></path>
<path d="M5 1.01716C5 1.19534 5.21543 1.28457 5.34142 1.15858L6.28787 0.212132C6.40503 0.0949748 6.59497 0.0949747 6.71213 0.212132L7.78787 1.28787C7.90503 1.40503 7.90503 1.59497 7.78787 1.71213L3.84142 5.65858C3.71543 5.78457 3.80466 6 3.98284 6H7.8C7.91046 6 8 6.08954 8 6.2V7.8C8 7.91046 7.91046 8 7.8 8H3.5C3.22386 8 3 7.77614 3 7.5V6.98284C3 6.80466 2.78457 6.71543 2.65858 6.84142L1.71213 7.78787C1.59497 7.90503 1.40503 7.90503 1.28787 7.78787L0.212132 6.71213C0.0949748 6.59497 0.0949747 6.40503 0.212132 6.28787L4.15858 2.34142C4.28457 2.21543 4.19534 2 4.01716 2H0.2C0.089543 2 0 1.91046 0 1.8V0.2C0 0.0895431 0.089543 0 0.2 0H4.5C4.77614 0 5 0.223858 5 0.5V1.01716Z" fill="#1A1A1A"></path>
<path d="M11.1201 0.914062C11.1201 1.27032 11.5507 1.44892 11.8027 1.19727L12.7071 0.292893C12.8946 0.105357 13.149 0 13.4142 0H16.7C16.8657 0 17 0.134315 17 0.3V1.7C17 1.86569 16.8657 2 16.7 2H11.5205C11.2996 2 11.1201 2.17948 11.1201 2.40039V2.8C11.1201 2.91046 11.2097 3 11.3201 3H14.7C14.8657 3 15 3.13431 15 3.3V4.7C15 4.86569 14.8657 5 14.7 5H11.3201C11.2097 5 11.1201 5.08954 11.1201 5.2V5.59961C11.1201 5.82052 11.2996 6 11.5205 6H16.7C16.8657 6 17 6.13431 17 6.3V7.7C17 7.86569 16.8657 8 16.7 8H13.4142C13.149 8 12.8946 7.89464 12.7071 7.70711L11.8027 6.80273C11.5507 6.55108 11.1201 6.72968 11.1201 7.08594V7.7C11.1201 7.86569 10.9858 8 10.8201 8H9.3C9.13431 8 9 7.86569 9 7.7V0.3C9 0.134315 9.13431 0 9.3 0H10.8201C10.9858 0 11.1201 0.134315 11.1201 0.3V0.914062Z" fill="#1A1A1A"></path>
</svg>